<svg width="13" height="13" viewBox="0 0 13 13" fill="none" xmlns="http://www.w3.org/2000/svg">
<path d="M8.41485 0.12257C9.14675 -0.0850973 9.91562 -0.0278379 10.619 0.286409C11.3224 0.600659 11.9269 1.15714 12.3522 1.88181C12.7772 2.60601 13.0032 3.46374 13 4.34116C13 6.15784 11.9764 7.48767 11.0521 8.56504C11.0509 8.56644 11.0497 8.56788 11.0485 8.56926L7.65676 12.3936C7.51437 12.5805 7.34033 12.7314 7.14533 12.8358C6.94585 12.9425 6.72914 12.9983 6.50965 13C6.29008 13.0016 6.07256 12.9488 5.87187 12.8449C5.67806 12.7446 5.50447 12.5986 5.36103 12.4168L1.95145 8.56926C1.95024 8.56791 1.949 8.56642 1.94782 8.56504C1.0527 7.52163 0.0639144 6.24765 0.00302269 4.51064L0 4.34116C1.77312e-05 3.46521 0.228028 2.60993 0.653807 1.88816C1.07961 1.16638 1.6832 0.6119 2.3849 0.298388C3.08662 -0.0151194 3.8536 -0.0730601 4.5842 0.132083C5.31274 0.33667 5.97103 0.793418 6.47278 1.44209C6.47625 1.44641 6.48051 1.44995 6.48517 1.45231C6.48984 1.45467 6.4949 1.45583 6.49998 1.45583L6.51479 1.45231L6.52719 1.44209C7.02733 0.789763 7.68549 0.329535 8.41485 0.12257ZM0.621464 4.48034C0.671167 5.90516 1.47935 6.99818 2.38188 8.05062L5.79177 11.8982L5.80718 11.9172C5.89493 12.0317 6.00265 12.1231 6.12305 12.1853C6.24347 12.2476 6.37398 12.2793 6.50573 12.2784C6.63743 12.2774 6.76749 12.2438 6.88719 12.1797C7.00687 12.1157 7.11355 12.0228 7.20004 11.907L7.21817 11.8844L10.6181 8.05062C11.5495 6.96448 12.3809 5.82745 12.3809 4.34116V4.3394C12.3839 3.60796 12.1957 2.8928 11.8414 2.28912C11.487 1.68543 10.9834 1.22187 10.3974 0.960087C9.81152 0.69832 9.17113 0.650769 8.56145 0.82373C7.9518 0.996712 7.40169 1.38199 6.98452 1.92832C6.98285 1.93051 6.98109 1.93288 6.97938 1.93502C6.91799 2.01153 6.84358 2.07266 6.76114 2.11436C6.69932 2.14562 6.63385 2.16555 6.56709 2.17355L6.49998 2.17743C6.41014 2.17743 6.32124 2.15603 6.23882 2.11436C6.15638 2.07266 6.08197 2.01153 6.02058 1.93502C6.01922 1.93331 6.01799 1.93146 6.01665 1.92973C5.59808 1.38675 5.04795 1.00455 4.43912 0.833596C3.83029 0.662648 3.19122 0.711164 2.60646 0.972419C2.02174 1.23368 1.51856 1.69541 1.16373 2.29687C0.808917 2.89834 0.619064 3.61121 0.619046 4.34116L0.621464 4.48034Z" fill="#A4A4A4"/>
</svg>
