<svg width="13" height="14" viewBox="0 0 13 14" fill="none" xmlns="http://www.w3.org/2000/svg">
<path d="M11.5781 7.1499C11.5781 7.31152 11.5139 7.46652 11.3996 7.5808C11.2854 7.69508 11.1304 7.75928 10.9688 7.75928H7.10938V11.6187C7.10938 11.7803 7.04517 11.9353 6.93089 12.0495C6.81661 12.1638 6.66162 12.228 6.5 12.228C6.33838 12.228 6.18339 12.1638 6.06911 12.0495C5.95483 11.9353 5.89062 11.7803 5.89062 11.6187V7.75928H2.03125C1.86963 7.75928 1.71464 7.69508 1.60036 7.5808C1.48608 7.46652 1.42188 7.31152 1.42188 7.1499C1.42188 6.98829 1.48608 6.83329 1.60036 6.71901C1.71464 6.60473 1.86963 6.54053 2.03125 6.54053H5.89062V2.68115C5.89062 2.51954 5.95483 2.36454 6.06911 2.25026C6.18339 2.13598 6.33838 2.07178 6.5 2.07178C6.66162 2.07178 6.81661 2.13598 6.93089 2.25026C7.04517 2.36454 7.10938 2.51954 7.10938 2.68115V6.54053H10.9688C11.1304 6.54053 11.2854 6.60473 11.3996 6.71901C11.5139 6.83329 11.5781 6.98829 11.5781 7.1499Z" fill="#FF3F1E"/>
</svg>
