<svg width="16" height="16" viewBox="0 0 16 16" fill="none" xmlns="http://www.w3.org/2000/svg">
<path d="M7.45308 1.02503C7.62908 0.629027 8.19109 0.629027 8.36709 1.02503L10.2791 5.31403C10.3521 5.47703 10.5061 5.58903 10.6831 5.60803L15.3541 6.10103C15.7841 6.14703 15.9581 6.68003 15.6361 6.97003L12.1471 10.114C12.0151 10.234 11.9561 10.415 11.9931 10.589L12.9671 15.184C13.0571 15.607 12.6031 15.937 12.2281 15.721L8.16008 13.374C8.00508 13.285 7.81509 13.285 7.66009 13.374L3.59208 15.721C3.21708 15.937 2.76309 15.607 2.85309 15.184L3.82708 10.589C3.86408 10.415 3.80509 10.234 3.67309 10.114L0.184087 6.97003C-0.137913 6.68003 0.0360848 6.14703 0.466085 6.10103L5.13708 5.60803C5.31408 5.58903 5.46808 5.47703 5.54108 5.31403L7.45308 1.02503Z" fill="#FF3F1E"/>
</svg>
