<svg width="18" height="12" viewBox="0 0 18 12" fill="none" xmlns="http://www.w3.org/2000/svg">
<path d="M8.75 0C10.6066 0 12.4213 0.529381 13.9642 1.52085C15.4589 2.48134 16.6332 3.8336 17.3487 5.41537L17.4166 5.56929L17.4219 5.58258C17.526 5.85199 17.526 6.1484 17.4219 6.41781C17.4202 6.42225 17.4185 6.42672 17.4166 6.4311C16.7088 8.079 15.5071 9.48807 13.9642 10.4795C12.4213 11.471 10.6065 12 8.75 12C6.89346 12 5.07867 11.471 3.5358 10.4795C1.99291 9.48807 0.791242 8.07901 0.0833963 6.4311C0.0815144 6.42672 0.0798254 6.42226 0.0781068 6.41781C-0.0260499 6.14841 -0.0260213 5.85199 0.0781068 5.58258L0.0833963 5.56929C0.791235 3.9214 1.99293 2.51232 3.5358 1.52085C5.07868 0.529383 6.89344 2.71869e-06 8.75 0ZM8.75 0.800078C7.05847 0.800081 5.40497 1.28242 3.99924 2.18576C2.59592 3.08756 1.50263 4.36847 0.857287 5.86659C0.825499 5.95277 0.825247 6.0468 0.85688 6.13302C1.5022 7.63144 2.59568 8.9127 3.99924 9.81463C5.40497 10.718 7.05847 11.1999 8.75 11.1999C10.4415 11.1999 12.095 10.718 13.5008 9.81463C14.9043 8.91273 15.9974 7.63137 16.6427 6.13302C16.6744 6.04672 16.6742 5.95285 16.6423 5.86659C15.997 4.36853 14.904 3.08754 13.5008 2.18576C12.095 1.28242 10.4415 0.800078 8.75 0.800078ZM10.8332 6.0002C10.8332 4.89552 9.90054 4 8.75 4C7.59946 4.00001 6.66676 4.89552 6.66676 6.0002C6.66682 7.10482 7.5995 8.00038 8.75 8.00039C9.90051 8.00039 10.8332 7.10483 10.8332 6.0002ZM11.6665 6.0002C11.6665 7.5467 10.3607 8.80047 8.75 8.80047C7.13928 8.80046 5.83352 7.54669 5.83346 6.0002C5.83346 4.45365 7.13925 3.19993 8.75 3.19992C10.3608 3.19992 11.6665 4.45365 11.6665 6.0002Z" fill="#A4A4A4"/>
</svg>
