<svg width="133" height="25" viewBox="0 0 133 25" fill="none" xmlns="http://www.w3.org/2000/svg">
<mask id="path-1-outside-1_29_176" maskUnits="userSpaceOnUse" x="0" y="0" width="133" height="25" fill="black">
<rect fill="white" width="133" height="25"/>
<path d="M1.28 2.968H4.128V22.904H1.28V2.968ZM13.8542 23H11.3263L6.04625 8.888H9.05425L12.5743 19.192L16.1263 8.888H18.6543L22.2063 19.192L25.7903 8.888H28.7343L23.4543 23H20.9263L17.4063 13.464L13.8542 23ZM39.743 23V13.56C39.743 11.896 39.359 11.352 38.911 11.32C36.063 11.032 33.503 23 33.503 23H30.655V8.888H33.503V16.184C33.503 16.184 35.231 8.376 39.455 8.664C41.823 8.792 42.623 11.416 42.623 13.432V16.184C42.719 15.672 44.479 8.376 48.543 8.664C50.911 8.792 51.711 11.416 51.711 13.432V23H48.863V13.56C48.863 11.896 48.447 11.352 47.999 11.32C45.183 11.032 42.623 22.872 42.623 23H39.743ZM61.7808 23H59.2848L53.1088 8.888H56.1488L60.5328 19.704L64.9168 8.888H67.9568L61.7808 23ZM71.6658 6.776C72.6578 6.776 73.4578 6.008 73.4578 5.048C73.4578 4.056 72.6578 3.288 71.6658 3.288C70.6738 3.288 69.8738 4.056 69.8738 5.048C69.8738 6.008 70.6738 6.776 71.6658 6.776ZM70.2898 8.888H73.1698V23H70.2898V8.888ZM89.79 17.688C89.022 20.92 86.462 23.32 82.942 23.32C78.782 23.32 75.39 20.024 75.39 15.992C75.39 11.928 78.782 8.664 82.942 8.664C86.43 8.664 88.958 11.064 89.79 14.168H87.294C86.59 12.344 84.894 11.064 82.942 11.064C80.35 11.064 78.238 13.272 78.238 15.992C78.238 18.68 80.35 20.888 82.942 20.888C84.958 20.888 86.654 19.544 87.326 17.688H89.79ZM97.3325 11.672V18.84C97.3325 19.64 97.5565 20.152 97.9405 20.472C98.3245 20.696 98.8685 20.824 99.6365 20.824C99.9885 20.824 100.245 20.824 100.501 20.76L101.397 20.6V23.096L100.757 23.192C100.437 23.224 100.053 23.256 99.6365 23.256C98.1965 23.256 96.9485 22.904 96.0525 22.232C95.0285 21.464 94.5165 20.344 94.5165 18.84V11.128C92.4685 10.808 90.4525 11.288 90.4525 11.288V8.888C95.3485 6.744 94.9645 1.88 94.9645 1.88H97.5245C97.5245 5.496 95.9565 7.768 94.2925 8.888C94.2925 8.888 98.2285 8.664 100.085 10.392V13.176C98.6765 11.864 97.3325 11.672 97.3325 11.672ZM110.223 23.288C106.063 23.288 102.671 19.992 102.671 15.96C102.671 11.896 106.063 8.632 110.223 8.632C114.351 8.632 117.711 11.896 117.711 15.96C117.711 19.992 114.351 23.288 110.223 23.288ZM110.223 11.032C107.631 11.032 105.519 13.24 105.519 15.96C105.519 18.648 107.631 20.856 110.223 20.856C112.815 20.856 114.895 18.648 114.895 15.96C114.895 13.24 112.815 11.032 110.223 11.032ZM128.712 13.944V13.656C128.712 11.992 128.328 11.48 127.88 11.416C125.032 11.128 122.472 23.096 122.472 23.096H119.624V8.984H122.472V16.312C122.472 16.312 124.2 8.472 128.424 8.76C130.792 8.92 131.592 11.544 131.592 13.528V13.944H128.712Z"/>
</mask>
<path d="M1.28 2.968H4.128V22.904H1.28V2.968ZM13.8542 23H11.3263L6.04625 8.888H9.05425L12.5743 19.192L16.1263 8.888H18.6543L22.2063 19.192L25.7903 8.888H28.7343L23.4543 23H20.9263L17.4063 13.464L13.8542 23ZM39.743 23V13.56C39.743 11.896 39.359 11.352 38.911 11.32C36.063 11.032 33.503 23 33.503 23H30.655V8.888H33.503V16.184C33.503 16.184 35.231 8.376 39.455 8.664C41.823 8.792 42.623 11.416 42.623 13.432V16.184C42.719 15.672 44.479 8.376 48.543 8.664C50.911 8.792 51.711 11.416 51.711 13.432V23H48.863V13.56C48.863 11.896 48.447 11.352 47.999 11.32C45.183 11.032 42.623 22.872 42.623 23H39.743ZM61.7808 23H59.2848L53.1088 8.888H56.1488L60.5328 19.704L64.9168 8.888H67.9568L61.7808 23ZM71.6658 6.776C72.6578 6.776 73.4578 6.008 73.4578 5.048C73.4578 4.056 72.6578 3.288 71.6658 3.288C70.6738 3.288 69.8738 4.056 69.8738 5.048C69.8738 6.008 70.6738 6.776 71.6658 6.776ZM70.2898 8.888H73.1698V23H70.2898V8.888ZM89.79 17.688C89.022 20.92 86.462 23.32 82.942 23.32C78.782 23.32 75.39 20.024 75.39 15.992C75.39 11.928 78.782 8.664 82.942 8.664C86.43 8.664 88.958 11.064 89.79 14.168H87.294C86.59 12.344 84.894 11.064 82.942 11.064C80.35 11.064 78.238 13.272 78.238 15.992C78.238 18.68 80.35 20.888 82.942 20.888C84.958 20.888 86.654 19.544 87.326 17.688H89.79ZM97.3325 11.672V18.84C97.3325 19.64 97.5565 20.152 97.9405 20.472C98.3245 20.696 98.8685 20.824 99.6365 20.824C99.9885 20.824 100.245 20.824 100.501 20.76L101.397 20.6V23.096L100.757 23.192C100.437 23.224 100.053 23.256 99.6365 23.256C98.1965 23.256 96.9485 22.904 96.0525 22.232C95.0285 21.464 94.5165 20.344 94.5165 18.84V11.128C92.4685 10.808 90.4525 11.288 90.4525 11.288V8.888C95.3485 6.744 94.9645 1.88 94.9645 1.88H97.5245C97.5245 5.496 95.9565 7.768 94.2925 8.888C94.2925 8.888 98.2285 8.664 100.085 10.392V13.176C98.6765 11.864 97.3325 11.672 97.3325 11.672ZM110.223 23.288C106.063 23.288 102.671 19.992 102.671 15.96C102.671 11.896 106.063 8.632 110.223 8.632C114.351 8.632 117.711 11.896 117.711 15.96C117.711 19.992 114.351 23.288 110.223 23.288ZM110.223 11.032C107.631 11.032 105.519 13.24 105.519 15.96C105.519 18.648 107.631 20.856 110.223 20.856C112.815 20.856 114.895 18.648 114.895 15.96C114.895 13.24 112.815 11.032 110.223 11.032ZM128.712 13.944V13.656C128.712 11.992 128.328 11.48 127.88 11.416C125.032 11.128 122.472 23.096 122.472 23.096H119.624V8.984H122.472V16.312C122.472 16.312 124.2 8.472 128.424 8.76C130.792 8.92 131.592 11.544 131.592 13.528V13.944H128.712Z" fill="white"/>
<path d="M1.28 2.968V1.968H0.28V2.968H1.28ZM4.128 2.968H5.128V1.968H4.128V2.968ZM4.128 22.904V23.904H5.128V22.904H4.128ZM1.28 22.904H0.28V23.904H1.28V22.904ZM1.28 2.968V3.968H4.128V2.968V1.968H1.28V2.968ZM4.128 2.968H3.128V22.904H4.128H5.128V2.968H4.128ZM4.128 22.904V21.904H1.28V22.904V23.904H4.128V22.904ZM1.28 22.904H2.28V2.968H1.28H0.28V22.904H1.28ZM13.8542 23V24H14.5489L14.7914 23.3491L13.8542 23ZM11.3263 23L10.3897 23.3504L10.6327 24H11.3263V23ZM6.04625 8.888V7.888H4.6044L5.10966 9.23842L6.04625 8.888ZM9.05425 8.888L10.0006 8.56473L9.76938 7.888H9.05425V8.888ZM12.5743 19.192L11.6279 19.5153L12.57 22.2728L13.5197 19.5179L12.5743 19.192ZM16.1263 8.888V7.888H15.4132L15.1808 8.5621L16.1263 8.888ZM18.6543 8.888L19.5997 8.5621L19.3673 7.888H18.6543V8.888ZM22.2063 19.192L21.2608 19.5179L22.202 22.2481L23.1507 19.5205L22.2063 19.192ZM25.7903 8.888V7.888H25.0793L24.8458 8.55948L25.7903 8.888ZM28.7343 8.888L29.6708 9.23842L30.1761 7.888H28.7343V8.888ZM23.4543 23V24H24.1478L24.3908 23.3504L23.4543 23ZM20.9263 23L19.9881 23.3463L20.2294 24H20.9263V23ZM17.4063 13.464L18.3444 13.1177L17.4105 10.5877L16.4691 13.1149L17.4063 13.464ZM13.8542 23V22H11.3263V23V24H13.8542V23ZM11.3263 23L12.2628 22.6496L6.98284 8.53757L6.04625 8.888L5.10966 9.23842L10.3897 23.3504L11.3263 23ZM6.04625 8.888V9.888H9.05425V8.888V7.888H6.04625V8.888ZM9.05425 8.888L8.10794 9.21127L11.6279 19.5153L12.5743 19.192L13.5206 18.8687L10.0006 8.56473L9.05425 8.888ZM12.5743 19.192L13.5197 19.5179L17.0717 9.2139L16.1263 8.888L15.1808 8.5621L11.6288 18.8661L12.5743 19.192ZM16.1263 8.888V9.888H18.6543V8.888V7.888H16.1263V8.888ZM18.6543 8.888L17.7088 9.2139L21.2608 19.5179L22.2063 19.192L23.1517 18.8661L19.5997 8.5621L18.6543 8.888ZM22.2063 19.192L23.1507 19.5205L26.7347 9.21652L25.7903 8.888L24.8458 8.55948L21.2618 18.8635L22.2063 19.192ZM25.7903 8.888V9.888H28.7343V8.888V7.888H25.7903V8.888ZM28.7343 8.888L27.7977 8.53757L22.5177 22.6496L23.4543 23L24.3908 23.3504L29.6708 9.23842L28.7343 8.888ZM23.4543 23V22H20.9263V23V24H23.4543V23ZM20.9263 23L21.8644 22.6537L18.3444 13.1177L17.4063 13.464L16.4681 13.8103L19.9881 23.3463L20.9263 23ZM17.4063 13.464L16.4691 13.1149L12.9171 22.6509L13.8542 23L14.7914 23.3491L18.3434 13.8131L17.4063 13.464ZM39.743 23H38.743V24H39.743V23ZM38.911 11.32L38.8104 12.3149L38.8251 12.3164L38.8398 12.3175L38.911 11.32ZM33.503 23V24H34.3117L34.4809 23.2092L33.503 23ZM30.655 23H29.655V24H30.655V23ZM30.655 8.888V7.888H29.655V8.888H30.655ZM33.503 8.888H34.503V7.888H33.503V8.888ZM33.503 16.184H32.503L34.4794 16.4001L33.503 16.184ZM39.455 8.664L39.387 9.66178L39.401 9.66254L39.455 8.664ZM42.623 16.184H41.623L43.6059 16.3683L42.623 16.184ZM48.543 8.664L48.4723 9.6615L48.4807 9.66209L48.489 9.66254L48.543 8.664ZM51.711 23V24H52.711V23H51.711ZM48.863 23H47.863V24H48.863V23ZM47.999 11.32L47.8973 12.3148L47.9125 12.3164L47.9278 12.3175L47.999 11.32ZM42.623 23V24H43.623V23H42.623ZM39.743 23H40.743V13.56H39.743H38.743V23H39.743ZM39.743 13.56H40.743C40.743 12.6774 40.6451 11.9628 40.4114 11.4277C40.1592 10.8504 39.6844 10.3727 38.9822 10.3225L38.911 11.32L38.8398 12.3175C38.7478 12.3109 38.6579 12.2738 38.5944 12.2215C38.5412 12.1777 38.5476 12.1572 38.5786 12.2283C38.6489 12.3892 38.743 12.7786 38.743 13.56H39.743ZM38.911 11.32L39.0116 10.3251C38.2749 10.2506 37.6579 10.5881 37.2025 10.9866C36.7466 11.3854 36.3496 11.9305 36.0041 12.5139C35.3095 13.6867 34.6961 15.2347 34.1913 16.7327C33.6825 18.243 33.2665 19.7562 32.9784 20.8878C32.8341 21.4547 32.7212 21.9283 32.6443 22.261C32.6058 22.4274 32.5763 22.5587 32.5562 22.6489C32.5462 22.6941 32.5385 22.7289 32.5333 22.7528C32.5307 22.7648 32.5287 22.774 32.5274 22.7804C32.5267 22.7835 32.5262 22.786 32.5258 22.7878C32.5256 22.7886 32.5254 22.7893 32.5253 22.7898C32.5253 22.7901 32.5252 22.7903 32.5252 22.7905C32.5252 22.7907 32.5251 22.7908 33.503 23C34.4809 23.2092 34.4809 23.2092 34.4809 23.2093C34.4809 23.2092 34.4809 23.2092 34.4809 23.2091C34.4809 23.2089 34.481 23.2085 34.4812 23.2079C34.4814 23.2067 34.4818 23.2049 34.4824 23.2023C34.4835 23.1972 34.4852 23.1892 34.4875 23.1785C34.4922 23.1571 34.4993 23.1249 34.5087 23.0824C34.5275 22.9975 34.5558 22.8719 34.5928 22.7117C34.667 22.391 34.7764 21.9318 34.9166 21.3812C35.1975 20.2778 35.5995 18.817 36.0867 17.3713C36.5779 15.9133 37.1385 14.5233 37.7249 13.5331C38.0199 13.035 38.2902 12.6923 38.5194 12.4918C38.6304 12.3947 38.7115 12.349 38.7603 12.329C38.7835 12.3195 38.7976 12.3165 38.8036 12.3155C38.8067 12.315 38.8084 12.3149 38.8091 12.3149C38.8097 12.3149 38.8101 12.3149 38.8104 12.3149L38.911 11.32ZM33.503 23V22H30.655V23V24H33.503V23ZM30.655 23H31.655V8.888H30.655H29.655V23H30.655ZM30.655 8.888V9.888H33.503V8.888V7.888H30.655V8.888ZM33.503 8.888H32.503V16.184H33.503H34.503V8.888H33.503ZM33.503 16.184C34.4794 16.4001 34.4793 16.4003 34.4793 16.4005C34.4793 16.4005 34.4792 16.4007 34.4792 16.4007C34.4792 16.4008 34.4792 16.4008 34.4792 16.4007C34.4793 16.4004 34.4795 16.3997 34.4797 16.3985C34.4803 16.3961 34.4812 16.3919 34.4826 16.3859C34.4854 16.374 34.4898 16.355 34.4959 16.3294C34.5082 16.2783 34.5272 16.201 34.5532 16.1013C34.6052 15.9017 34.6848 15.6137 34.7932 15.2676C35.0113 14.5717 35.3408 13.6587 35.7891 12.764C36.2419 11.8601 36.7884 11.0312 37.4179 10.4554C38.0339 9.89194 38.6772 9.61329 39.387 9.66168L39.455 8.664L39.523 7.66632C38.1208 7.57071 36.9641 8.16005 36.0681 8.97962C35.1856 9.78683 34.5081 10.8559 34.0009 11.868C33.4892 12.8893 33.1227 13.9103 32.8848 14.6694C32.7652 15.0508 32.6768 15.3705 32.6178 15.5968C32.5883 15.7101 32.5661 15.8002 32.551 15.8633C32.5434 15.8949 32.5376 15.9197 32.5336 15.9373C32.5315 15.9461 32.53 15.9531 32.5288 15.9582C32.5282 15.9608 32.5278 15.9629 32.5274 15.9645C32.5272 15.9653 32.5271 15.966 32.5269 15.9666C32.5269 15.9668 32.5268 15.9672 32.5268 15.9673C32.5267 15.9676 32.5266 15.9679 33.503 16.184ZM39.455 8.664L39.401 9.66254C40.1488 9.70296 40.6687 10.1103 41.0459 10.813C41.4407 11.5483 41.623 12.5319 41.623 13.432H42.623H43.623C43.623 12.3161 43.4053 10.9797 42.8081 9.86704C42.1933 8.72175 41.1292 7.75304 39.509 7.66546L39.455 8.664ZM42.623 13.432H41.623V16.184H42.623H43.623V13.432H42.623ZM42.623 16.184L43.6059 16.3683C43.6412 16.1797 44.0795 14.3268 44.9828 12.5842C45.4338 11.7141 45.9699 10.9327 46.5788 10.3952C47.1736 9.87007 47.7921 9.61329 48.4723 9.6615L48.543 8.664L48.6137 7.6665C47.2619 7.5707 46.1364 8.11793 45.2552 8.89582C44.3881 9.66129 43.7162 10.6819 43.2072 11.6638C42.1905 13.6252 41.7008 15.6763 41.6401 15.9997L42.623 16.184ZM48.543 8.664L48.489 9.66254C49.2368 9.70296 49.7567 10.1103 50.1339 10.813C50.5287 11.5483 50.711 12.5319 50.711 13.432H51.711H52.711C52.711 12.3161 52.4933 10.9797 51.8961 9.86704C51.2813 8.72175 50.2172 7.75304 48.597 7.66546L48.543 8.664ZM51.711 13.432H50.711V23H51.711H52.711V13.432H51.711ZM51.711 23V22H48.863V23V24H51.711V23ZM48.863 23H49.863V13.56H48.863H47.863V23H48.863ZM48.863 13.56H49.863C49.863 12.6695 49.7555 11.9496 49.5076 11.4103C49.242 10.8328 48.758 10.3717 48.0702 10.3225L47.999 11.32L47.9278 12.3175C47.8383 12.3111 47.7554 12.276 47.6988 12.2307C47.6506 12.1922 47.6585 12.1763 47.6904 12.2457C47.7625 12.4024 47.863 12.7865 47.863 13.56H48.863ZM47.999 11.32L48.1007 10.3252C47.3678 10.2502 46.7541 10.5857 46.3018 10.9807C45.8488 11.3762 45.4544 11.9167 45.1111 12.4951C44.4209 13.6578 43.8104 15.1939 43.3075 16.6843C42.8005 18.1869 42.3854 19.6966 42.0975 20.8354C41.9533 21.4058 41.8403 21.8862 41.7629 22.23C41.7243 22.4016 41.6941 22.5409 41.6733 22.6414C41.663 22.6911 41.6543 22.7346 41.6477 22.7691C41.6446 22.7858 41.641 22.8054 41.6378 22.8249C41.6363 22.8342 41.6339 22.8494 41.6317 22.8672C41.6314 22.8689 41.623 22.928 41.623 23H42.623H43.623C43.623 23.0437 43.62 23.0775 43.619 23.0887C43.6176 23.1041 43.6161 23.1161 43.6153 23.1226C43.6136 23.1355 43.6122 23.1444 43.6119 23.1461C43.6112 23.1504 43.6113 23.1492 43.6131 23.1397C43.6165 23.122 43.6225 23.0917 43.6316 23.0477C43.6496 22.9609 43.6772 22.8329 43.7141 22.6691C43.7877 22.342 43.8967 21.8787 44.0365 21.3256C44.3166 20.2174 44.7175 18.7611 45.2025 17.3237C45.6916 15.8741 46.2491 14.4962 46.8309 13.5159C47.1236 13.0228 47.3912 12.6846 47.6172 12.4872C47.8439 12.2893 47.9262 12.3178 47.8973 12.3148L47.999 11.32ZM42.623 23V22H39.743V23V24H42.623V23ZM61.7808 23V24H62.4347L62.6969 23.4009L61.7808 23ZM59.2848 23L58.3686 23.4009L58.6308 24H59.2848V23ZM53.1088 8.888V7.888H51.5795L52.1926 9.28893L53.1088 8.888ZM56.1488 8.888L57.0755 8.51236L56.8224 7.888H56.1488V8.888ZM60.5328 19.704L59.606 20.0796L60.5328 22.3661L61.4595 20.0796L60.5328 19.704ZM64.9168 8.888V7.888H64.2431L63.99 8.51236L64.9168 8.888ZM67.9568 8.888L68.8729 9.28893L69.486 7.888H67.9568V8.888ZM61.7808 23V22H59.2848V23V24H61.7808V23ZM59.2848 23L60.2009 22.5991L54.0249 8.48707L53.1088 8.888L52.1926 9.28893L58.3686 23.4009L59.2848 23ZM53.1088 8.888V9.888H56.1488V8.888V7.888H53.1088V8.888ZM56.1488 8.888L55.222 9.26364L59.606 20.0796L60.5328 19.704L61.4595 19.3284L57.0755 8.51236L56.1488 8.888ZM60.5328 19.704L61.4595 20.0796L65.8435 9.26364L64.9168 8.888L63.99 8.51236L59.606 19.3284L60.5328 19.704ZM64.9168 8.888V9.888H67.9568V8.888V7.888H64.9168V8.888ZM67.9568 8.888L67.0406 8.48707L60.8646 22.5991L61.7808 23L62.6969 23.4009L68.8729 9.28893L67.9568 8.888ZM70.2898 8.888V7.888H69.2898V8.888H70.2898ZM73.1698 8.888H74.1698V7.888H73.1698V8.888ZM73.1698 23V24H74.1698V23H73.1698ZM70.2898 23H69.2898V24H70.2898V23ZM71.6658 6.776V7.776C73.1741 7.776 74.4578 6.59552 74.4578 5.048H73.4578H72.4578C72.4578 5.42048 72.1414 5.776 71.6658 5.776V6.776ZM73.4578 5.048H74.4578C74.4578 3.48029 73.1863 2.288 71.6658 2.288V3.288V4.288C72.1292 4.288 72.4578 4.63171 72.4578 5.048H73.4578ZM71.6658 3.288V2.288C70.1452 2.288 68.8738 3.48029 68.8738 5.048H69.8738H70.8738C70.8738 4.6317 71.2023 4.288 71.6658 4.288V3.288ZM69.8738 5.048H68.8738C68.8738 6.59552 70.1574 7.776 71.6658 7.776V6.776V5.776C71.1901 5.776 70.8738 5.42048 70.8738 5.048H69.8738ZM70.2898 8.888V9.888H73.1698V8.888V7.888H70.2898V8.888ZM73.1698 8.888H72.1698V23H73.1698H74.1698V8.888H73.1698ZM73.1698 23V22H70.2898V23V24H73.1698V23ZM70.2898 23H71.2898V8.888H70.2898H69.2898V23H70.2898ZM89.79 17.688L90.7629 17.9192L91.0555 16.688H89.79V17.688ZM89.79 14.168V15.168H91.0933L90.7559 13.9091L89.79 14.168ZM87.294 14.168L86.3611 14.5281L86.6081 15.168H87.294V14.168ZM87.326 17.688V16.688H86.6245L86.3857 17.3476L87.326 17.688ZM89.79 17.688L88.8171 17.4568C88.1409 20.3023 85.9359 22.32 82.942 22.32V23.32V24.32C86.9881 24.32 89.9031 21.5377 90.7629 17.9192L89.79 17.688ZM82.942 23.32V22.32C79.3061 22.32 76.39 19.4439 76.39 15.992H75.39H74.39C74.39 20.6041 78.2579 24.32 82.942 24.32V23.32ZM75.39 15.992H76.39C76.39 12.5108 79.3032 9.664 82.942 9.664V8.664V7.664C78.2608 7.664 74.39 11.3452 74.39 15.992H75.39ZM82.942 8.664V9.664C85.9025 9.664 88.0887 11.6832 88.8241 14.4269L89.79 14.168L90.7559 13.9091C89.8273 10.4448 86.9575 7.664 82.942 7.664V8.664ZM89.79 14.168V13.168H87.294V14.168V15.168H89.79V14.168ZM87.294 14.168L88.2269 13.8079C87.3895 11.6383 85.3486 10.064 82.942 10.064V11.064V12.064C84.4394 12.064 85.7905 13.0497 86.3611 14.5281L87.294 14.168ZM82.942 11.064V10.064C79.755 10.064 77.238 12.7634 77.238 15.992H78.238H79.238C79.238 13.7806 80.945 12.064 82.942 12.064V11.064ZM78.238 15.992H77.238C77.238 19.1929 79.7591 21.888 82.942 21.888V20.888V19.888C80.9409 19.888 79.238 18.1671 79.238 15.992H78.238ZM82.942 20.888V21.888C85.427 21.888 87.468 20.2332 88.2663 18.0284L87.326 17.688L86.3857 17.3476C85.84 18.8548 84.489 19.888 82.942 19.888V20.888ZM87.326 17.688V18.688H89.79V17.688V16.688H87.326V17.688ZM97.3325 11.672L97.4739 10.6821L96.3325 10.519V11.672H97.3325ZM97.9405 20.472L97.3003 21.2402L97.3645 21.2937L97.4366 21.3358L97.9405 20.472ZM100.501 20.76L100.325 19.7756L100.291 19.7816L100.258 19.7899L100.501 20.76ZM101.397 20.6H102.397V19.4056L101.221 19.6156L101.397 20.6ZM101.397 23.096L101.545 24.0849L102.397 23.9572V23.096H101.397ZM100.757 23.192L100.856 24.187L100.88 24.1846L100.905 24.1809L100.757 23.192ZM96.0525 22.232L96.6525 21.432L96.6525 21.432L96.0525 22.232ZM94.5165 11.128H95.5165V10.2721L94.6709 10.14L94.5165 11.128ZM90.4525 11.288H89.4525V12.554L90.6841 12.2608L90.4525 11.288ZM90.4525 8.888L90.0514 7.97198L89.4525 8.23423V8.888H90.4525ZM94.9645 1.88V0.879999H93.8824L93.9676 1.9587L94.9645 1.88ZM97.5245 1.88H98.5245V0.879999H97.5245V1.88ZM94.2925 8.888L93.7341 8.05841L90.7106 10.0935L94.3493 9.88638L94.2925 8.888ZM100.085 10.392H101.085V9.95672L100.766 9.66011L100.085 10.392ZM100.085 13.176L99.4028 13.9076L101.085 15.4747V13.176H100.085ZM97.3325 11.672H96.3325V18.84H97.3325H98.3325V11.672H97.3325ZM97.3325 18.84H96.3325C96.3325 19.8297 96.6172 20.6709 97.3003 21.2402L97.9405 20.472L98.5807 19.7038C98.4958 19.6331 98.3325 19.4503 98.3325 18.84H97.3325ZM97.9405 20.472L97.4366 21.3358C98.0305 21.6822 98.7717 21.824 99.6365 21.824V20.824V19.824C98.9653 19.824 98.6185 19.7098 98.4444 19.6082L97.9405 20.472ZM99.6365 20.824V21.824C99.9591 21.824 100.345 21.8296 100.743 21.7301L100.501 20.76L100.258 19.7899C100.144 19.8184 100.018 19.824 99.6365 19.824V20.824ZM100.501 20.76L100.676 21.7444L101.572 21.5844L101.397 20.6L101.221 19.6156L100.325 19.7756L100.501 20.76ZM101.397 20.6H100.397V23.096H101.397H102.397V20.6H101.397ZM101.397 23.096L101.248 22.1071L100.608 22.2031L100.757 23.192L100.905 24.1809L101.545 24.0849L101.397 23.096ZM100.757 23.192L100.657 22.197C100.349 22.2278 100.003 22.256 99.6365 22.256V23.256V24.256C100.102 24.256 100.524 24.2202 100.856 24.187L100.757 23.192ZM99.6365 23.256V22.256C98.3465 22.256 97.3289 21.9393 96.6525 21.432L96.0525 22.232L95.4525 23.032C96.5681 23.8687 98.0465 24.256 99.6365 24.256V23.256ZM96.0525 22.232L96.6525 21.432C95.9234 20.8852 95.5165 20.0873 95.5165 18.84H94.5165H93.5165C93.5165 20.6007 94.1336 22.0428 95.4525 23.032L96.0525 22.232ZM94.5165 18.84H95.5165V11.128H94.5165H93.5165V18.84H94.5165ZM94.5165 11.128L94.6709 10.14C93.5311 9.96189 92.4214 10.0083 91.6118 10.0935C91.2034 10.1365 90.8626 10.1903 90.6214 10.234C90.5006 10.2559 90.4042 10.2753 90.3363 10.2896C90.3023 10.2968 90.2753 10.3027 90.256 10.3071C90.2463 10.3093 90.2385 10.3111 90.2326 10.3124C90.2297 10.3131 90.2272 10.3137 90.2253 10.3142C90.2243 10.3144 90.2234 10.3146 90.2227 10.3148C90.2223 10.3148 90.222 10.3149 90.2217 10.315C90.2215 10.315 90.2213 10.3151 90.2213 10.3151C90.2211 10.3151 90.2209 10.3152 90.4525 11.288C90.6841 12.2608 90.6839 12.2608 90.6838 12.2609C90.6837 12.2609 90.6836 12.2609 90.6835 12.261C90.6833 12.261 90.6832 12.261 90.683 12.2611C90.6828 12.2611 90.6827 12.2611 90.6827 12.2611C90.6827 12.2611 90.6832 12.261 90.6841 12.2608C90.686 12.2604 90.6897 12.2595 90.6953 12.2583C90.7065 12.2557 90.7248 12.2517 90.75 12.2464C90.8003 12.2357 90.8774 12.2201 90.9776 12.202C91.1784 12.1657 91.4696 12.1195 91.8212 12.0825C92.5316 12.0077 93.4539 11.9741 94.3621 12.116L94.5165 11.128ZM90.4525 11.288H91.4525V8.888H90.4525H89.4525V11.288H90.4525ZM90.4525 8.888L90.8536 9.80402C93.6018 8.60059 94.8991 6.60498 95.489 4.90842C95.7805 4.07004 95.8988 3.30937 95.9446 2.75595C95.9676 2.4783 95.9725 2.24994 95.9714 2.08635C95.9709 2.00447 95.9688 1.93853 95.9666 1.89045C95.9655 1.86641 95.9644 1.8468 95.9635 1.83187C95.9631 1.8244 95.9626 1.8181 95.9623 1.813C95.9621 1.81045 95.9619 1.80819 95.9618 1.80624C95.9617 1.80526 95.9616 1.80436 95.9616 1.80354C95.9615 1.80313 95.9615 1.80257 95.9615 1.80236C95.9614 1.80182 95.9614 1.8013 94.9645 1.88C93.9676 1.9587 93.9676 1.95822 93.9675 1.95775C93.9675 1.95762 93.9675 1.95717 93.9675 1.9569C93.9674 1.95637 93.9674 1.95592 93.9674 1.95553C93.9673 1.95476 93.9673 1.95427 93.9673 1.95407C93.9672 1.95366 93.9673 1.95436 93.9674 1.95617C93.9676 1.95977 93.9681 1.96774 93.9686 1.97984C93.9697 2.00406 93.9711 2.04472 93.9715 2.10002C93.9722 2.21081 93.9689 2.37919 93.9514 2.59104C93.9162 3.01663 93.8245 3.60595 93.6 4.25158C93.1579 5.52302 92.1992 7.03141 90.0514 7.97198L90.4525 8.888ZM94.9645 1.88V2.88H97.5245V1.88V0.879999H94.9645V1.88ZM97.5245 1.88H96.5245C96.5245 5.18129 95.1074 7.13411 93.7341 8.05841L94.2925 8.888L94.8509 9.71759C96.8056 8.40189 98.5245 5.8107 98.5245 1.88H97.5245ZM94.2925 8.888C94.3493 9.88638 94.3491 9.8864 94.3489 9.88641C94.3489 9.88641 94.3487 9.88642 94.3486 9.88643C94.3484 9.88644 94.3483 9.88644 94.3482 9.88645C94.3481 9.88645 94.3482 9.88645 94.3485 9.88643C94.3492 9.88639 94.3508 9.88631 94.3532 9.88619C94.3582 9.88594 94.3668 9.88554 94.3787 9.88504C94.4027 9.88404 94.4403 9.88267 94.49 9.88144C94.5895 9.87898 94.7371 9.87711 94.9214 9.87989C95.2915 9.88547 95.8016 9.90971 96.362 9.98345C97.5348 10.1378 98.7146 10.4829 99.4031 11.1239L100.085 10.392L100.766 9.66011C99.5984 8.57313 97.8822 8.16624 96.623 8.00055C95.9674 7.91429 95.3775 7.88653 94.9516 7.88011C94.7379 7.87689 94.5635 7.87901 94.4405 7.88205C94.379 7.88358 94.3302 7.88533 94.2956 7.88677C94.2783 7.88749 94.2645 7.88813 94.2545 7.88863C94.2494 7.88888 94.2453 7.88909 94.2422 7.88926C94.2406 7.88934 94.2393 7.88941 94.2382 7.88947C94.2377 7.8895 94.2372 7.88953 94.2368 7.88955C94.2366 7.88957 94.2363 7.88958 94.2362 7.88959C94.2359 7.8896 94.2357 7.88962 94.2925 8.888ZM100.085 10.392H99.0845V13.176H100.085H101.085V10.392H100.085ZM100.085 13.176L100.766 12.4444C99.9626 11.6956 99.169 11.2589 98.5631 11.0081C98.2604 10.8828 98.0043 10.8036 97.8163 10.7547C97.7222 10.7302 97.6449 10.7133 97.587 10.7018C97.5581 10.6961 97.534 10.6917 97.515 10.6885C97.5056 10.6869 97.4974 10.6856 97.4905 10.6845C97.4871 10.684 97.484 10.6835 97.4812 10.6831C97.4798 10.6829 97.4785 10.6827 97.4773 10.6825C97.4767 10.6825 97.4761 10.6824 97.4756 10.6823C97.4753 10.6822 97.4749 10.6822 97.4747 10.6822C97.4743 10.6821 97.4739 10.6821 97.3325 11.672C97.1911 12.6619 97.1907 12.6619 97.1903 12.6618C97.1902 12.6618 97.1898 12.6618 97.1896 12.6617C97.1891 12.6617 97.1886 12.6616 97.1882 12.6615C97.1873 12.6614 97.1865 12.6613 97.1858 12.6612C97.1843 12.661 97.1831 12.6608 97.1823 12.6606C97.1806 12.6604 97.1801 12.6603 97.1808 12.6604C97.1823 12.6607 97.1884 12.6617 97.199 12.6638C97.2201 12.668 97.2588 12.6763 97.3127 12.6903C97.4207 12.7184 97.5886 12.7692 97.7979 12.8559C98.216 13.0291 98.7984 13.3444 99.4028 13.9076L100.085 13.176ZM110.223 23.288V22.288C106.587 22.288 103.671 19.4119 103.671 15.96H102.671H101.671C101.671 20.5721 105.539 24.288 110.223 24.288V23.288ZM102.671 15.96H103.671C103.671 12.4788 106.584 9.632 110.223 9.632V8.632V7.632C105.542 7.632 101.671 11.3132 101.671 15.96H102.671ZM110.223 8.632V9.632C113.822 9.632 116.711 12.4707 116.711 15.96H117.711H118.711C118.711 11.3213 114.881 7.632 110.223 7.632V8.632ZM117.711 15.96H116.711C116.711 19.4201 113.819 22.288 110.223 22.288V23.288V24.288C114.884 24.288 118.711 20.5639 118.711 15.96H117.711ZM110.223 11.032V10.032C107.036 10.032 104.519 12.7314 104.519 15.96H105.519H106.519C106.519 13.7486 108.226 12.032 110.223 12.032V11.032ZM105.519 15.96H104.519C104.519 19.1609 107.04 21.856 110.223 21.856V20.856V19.856C108.222 19.856 106.519 18.1351 106.519 15.96H105.519ZM110.223 20.856V21.856C113.415 21.856 115.895 19.1518 115.895 15.96H114.895H113.895C113.895 18.1442 112.216 19.856 110.223 19.856V20.856ZM114.895 15.96H115.895C115.895 12.7406 113.419 10.032 110.223 10.032V11.032V12.032C112.212 12.032 113.895 13.7394 113.895 15.96H114.895ZM128.712 13.944H127.712V14.944H128.712V13.944ZM127.88 11.416L128.021 10.426L128.001 10.4231L127.98 10.4211L127.88 11.416ZM122.472 23.096V24.096H123.28L123.45 23.3052L122.472 23.096ZM119.624 23.096H118.624V24.096H119.624V23.096ZM119.624 8.984V7.984H118.624V8.984H119.624ZM122.472 8.984H123.472V7.984H122.472V8.984ZM122.472 16.312H121.472L123.448 16.5272L122.472 16.312ZM128.424 8.76L128.356 9.75768L128.356 9.75772L128.424 8.76ZM131.592 13.944V14.944H132.592V13.944H131.592ZM128.712 13.944H129.712V13.656H128.712H127.712V13.944H128.712ZM128.712 13.656H129.712C129.712 12.7733 129.614 12.0648 129.378 11.5318C129.119 10.9442 128.658 10.517 128.021 10.426L127.88 11.416L127.738 12.4059C127.675 12.397 127.608 12.3683 127.556 12.3253C127.512 12.2883 127.52 12.2734 127.549 12.3402C127.618 12.4952 127.712 12.8747 127.712 13.656H128.712ZM127.88 11.416L127.98 10.4211C127.244 10.3466 126.627 10.6841 126.171 11.0826C125.715 11.4814 125.318 12.0265 124.973 12.6099C124.278 13.7827 123.665 15.3307 123.16 16.8287C122.651 18.339 122.235 19.8522 121.947 20.9838C121.803 21.5507 121.69 22.0243 121.613 22.357C121.575 22.5234 121.545 22.6547 121.525 22.7449C121.515 22.7901 121.507 22.8249 121.502 22.8488C121.499 22.8608 121.497 22.87 121.496 22.8764C121.495 22.8795 121.495 22.882 121.495 22.8838C121.494 22.8846 121.494 22.8853 121.494 22.8858C121.494 22.8861 121.494 22.8863 121.494 22.8865C121.494 22.8867 121.494 22.8868 122.472 23.096C123.45 23.3052 123.45 23.3052 123.45 23.3053C123.45 23.3052 123.45 23.3052 123.45 23.3051C123.45 23.3049 123.45 23.3045 123.45 23.3039C123.45 23.3027 123.451 23.3009 123.451 23.2983C123.452 23.2932 123.454 23.2852 123.456 23.2745C123.461 23.2531 123.468 23.2209 123.477 23.1784C123.496 23.0935 123.525 22.9679 123.562 22.8077C123.636 22.487 123.745 22.0278 123.885 21.4772C124.166 20.3738 124.568 18.913 125.055 17.4673C125.547 16.0093 126.107 14.6193 126.694 13.6291C126.989 13.131 127.259 12.7883 127.488 12.5878C127.599 12.4907 127.68 12.445 127.729 12.425C127.752 12.4155 127.766 12.4125 127.772 12.4115C127.775 12.411 127.777 12.4109 127.778 12.4109C127.778 12.4109 127.779 12.4109 127.779 12.4109L127.88 11.416ZM122.472 23.096V22.096H119.624V23.096V24.096H122.472V23.096ZM119.624 23.096H120.624V8.984H119.624H118.624V23.096H119.624ZM119.624 8.984V9.984H122.472V8.984V7.984H119.624V8.984ZM122.472 8.984H121.472V16.312H122.472H123.472V8.984H122.472ZM122.472 16.312C123.448 16.5272 123.448 16.5275 123.448 16.5277C123.448 16.5277 123.448 16.5278 123.448 16.5279C123.448 16.528 123.448 16.528 123.448 16.5278C123.448 16.5275 123.448 16.5268 123.449 16.5256C123.449 16.5232 123.45 16.519 123.452 16.513C123.454 16.5009 123.459 16.4819 123.465 16.4562C123.477 16.4048 123.496 16.3271 123.522 16.2269C123.574 16.0265 123.654 15.7371 123.762 15.3894C123.98 14.6905 124.31 13.7733 124.759 12.8745C125.212 11.9664 125.758 11.1335 126.388 10.5549C127.005 9.98864 127.648 9.7094 128.356 9.75768L128.424 8.76L128.492 7.76232C127.088 7.6666 125.931 8.25936 125.035 9.08207C124.153 9.89249 123.476 10.9656 122.969 11.9815C122.457 13.0067 122.091 14.0315 121.853 14.7936C121.734 15.1764 121.645 15.4973 121.586 15.7244C121.557 15.8381 121.535 15.9286 121.52 15.9919C121.512 16.0235 121.506 16.0484 121.502 16.0661C121.5 16.0749 121.499 16.0819 121.497 16.087C121.497 16.0896 121.496 16.0917 121.496 16.0933C121.496 16.0941 121.496 16.0948 121.495 16.0954C121.495 16.0957 121.495 16.096 121.495 16.0962C121.495 16.0965 121.495 16.0968 122.472 16.312ZM128.424 8.76L128.356 9.75772C129.11 9.80865 129.636 10.2268 130.015 10.933C130.41 11.6699 130.592 12.6463 130.592 13.528H131.592H132.592C132.592 12.4257 132.373 11.0981 131.777 9.98704C131.164 8.84522 130.105 7.87135 128.491 7.76227L128.424 8.76ZM131.592 13.528H130.592V13.944H131.592H132.592V13.528H131.592ZM131.592 13.944V12.944H128.712V13.944V14.944H131.592V13.944Z" fill="#FBFAFC" mask="url(#path-1-outside-1_29_176)"/>
</svg>
